<?xml version="1.0" encoding="UTF-8"?>
<svg width="39px" height="40px" viewBox="0 0 39 40" version="1.1" xmlns="http://www.w3.org/2000/svg" xmlns:xlink="http://www.w3.org/1999/xlink">
    <!-- Generator: Sketch 61.2 (89653) - https://sketch.com -->
    <title>User 03C Copy</title>
    <desc>Created with Sketch.</desc>
    <defs>
        <ellipse id="path-1" cx="19.5" cy="20" rx="19.5" ry="20"></ellipse>
        <linearGradient x1="50%" y1="100%" x2="50%" y2="0%" id="linearGradient-3">
            <stop stop-color="#E6864E" offset="0%"></stop>
            <stop stop-color="#E67240" offset="100%"></stop>
        </linearGradient>
        <linearGradient x1="50%" y1="0%" x2="50%" y2="100%" id="linearGradient-4">
            <stop stop-color="#1D0024" offset="0%"></stop>
            <stop stop-color="#100014" offset="100%"></stop>
        </linearGradient>
        <linearGradient x1="50%" y1="0%" x2="50%" y2="100%" id="linearGradient-5">
            <stop stop-color="#FFE0CC" offset="0%"></stop>
            <stop stop-color="#FFEADB" offset="100%"></stop>
        </linearGradient>
        <path d="M2.40723982,15.2205882 C2.40723982,14.0294118 2.3684544,8.15404392 2.37036009,8.05471449 C-0.760180995,8.53676471 -0.696832579,2.31617647 2.47058824,3.83823529 C3.16742081,4.30147059 5.13122172,3.83823529 4.94117647,5.45696821e-12 C8.36199095,3.83823529 12.3335295,-0.638453798 12.6740988,3.00940731 C13.1391473,7.99057477 12.6713566,13.2034123 9.70800523,13.2037362 C9.4243938,13.2037672 9.1024192,13.1701689 8.74208145,13.1029412 C8.74208145,13.8529412 8.74208145,14.7352941 8.74208145,15.2205882 C8.74208145,16.1029412 9.50226244,16.7647059 11.0226244,17.2058824 C8.39649316,19.7907894 6.53827295,21.0763351 5.4479638,21.0625193 C4.35765465,21.048555 2.58389899,19.7630093 0.126696833,17.2058824 C1.64705882,16.7647059 2.40723982,16.1029412 2.40723982,15.2205882 Z" id="path-6"></path>
        <linearGradient x1="50%" y1="0%" x2="50%" y2="100%" id="linearGradient-8">
            <stop stop-color="#130027" offset="0%"></stop>
            <stop stop-color="#130017" offset="100%"></stop>
        </linearGradient>
        <path d="M24.7058824,4.63235294 C25.3186975,6.05489472 25.7832525,8.92254178 26.0995475,13.2352941 L0,13.2352941 C0.316294998,8.92254178 0.780850051,6.05489472 1.39366516,4.63235294 C2.19890498,2.76313126 7.50533175,0.616925822 9.0604446,0 C9.95868129,1.04928295 11.2451544,1.72058824 13.0497738,1.72058824 C14.8543931,1.72058824 16.1408662,1.04928295 17.0391029,0 C18.5942158,0.616925822 23.9006425,2.76313126 24.7058824,4.63235294 Z" id="path-9"></path>
    </defs>
    <g id="WEB---LIGHT" stroke="none" stroke-width="1" fill="none" fill-rule="evenodd">
        <g id="EMPLOYEES---SEARCH" transform="translate(-211.000000, -775.000000)">
            <g id="User-03C-Copy" transform="translate(211.000000, 775.000000)">
                <mask id="mask-2" fill="white">
                    <use xlink:href="#path-1"></use>
                </mask>
                <use id="Mask" fill="#DADFF7" xlink:href="#path-1"></use>
                <g id="Group-7" mask="url(#mask-2)">
                    <g transform="translate(6.000000, 6.000000)">
                        <path d="M13.3768568,23.4517519 C12.3465587,21.5078873 9.95599763,17.7672444 4.13892025,12.4250899 C-4.6389831,4.36383987 4.14980161,-2.42026518 13.1927488,1.67371837 C14.1601286,2.11167702 16.936544,0.591247862 19.3963465,2.38175605 C20.9831465,3.53679944 20.3204129,4.37520343 20.9231304,5.25786615 C21.525848,6.14052886 23.9673636,6.17541048 24.4234839,8.42896769 C24.6936805,9.76392984 23.7691652,11.1199704 23.8513105,12.12039 C23.9334559,13.1208097 24.8268129,14.051456 24.8248531,15.3684004 C24.8213603,17.7094437 23.0043298,19.6100589 20.7663988,19.6135433 C20.6747635,21.8871578 18.8870304,23.7094014 16.6957682,23.7128132 C15.9964764,23.713902 15.3388334,23.5296279 14.7651955,23.2043022 C14.1465174,23.7595119 13.626436,23.9226334 13.3768568,23.4517519 Z" id="Combined-Shape" fill="url(#linearGradient-3)" fill-rule="evenodd" transform="translate(12.668358, 12.086260) scale(-1, 1) rotate(-2.000000) translate(-12.668358, -12.086260) "></path>
                        <path d="M13.8099548,1.19117647 C12.2495982,2.23687643 10.3190155,5.66599319 11.1664486,10.2693712 C11.3513611,11.2738421 10.7737673,11.5745688 10.2795708,10.3355477 C8.7887141,6.59775694 8.61596565,3.22689531 11.1662353,1.61442816 C11.6098875,1.33554767 11.8632812,1.56150262 12.1800233,1.53407708 C12.7824015,1.48191934 13.5935488,1.03607696 13.8099548,1.19117647 Z" id="Path-4" fill="url(#linearGradient-4)" fill-rule="nonzero"></path>
                        <g id="Group-6" stroke-width="1" fill="none" fill-rule="evenodd" transform="translate(9.375566, 6.220588)">
                            <mask id="mask-7" fill="white">
                                <use xlink:href="#path-6"></use>
                            </mask>
                            <use id="Mask" fill="url(#linearGradient-5)" xlink:href="#path-6"></use>
                            <path d="M4.3397716,13.0260986 C6.06891204,12.6975324 7.55393329,12.0827824 8.79483536,11.1818486 C8.00105729,13.0170799 6.50193213,14.0727827 4.2974599,14.3489572 L4.3397716,13.0260986 Z" id="Path-2" fill="#FFDBC9" style="mix-blend-mode: multiply;" mask="url(#mask-7)" transform="translate(6.546148, 12.765403) scale(-1, 1) rotate(-2.000000) translate(-6.546148, -12.765403) "></path>
                        </g>
                        <g id="Combined-Shape" stroke-width="1" fill="none" fill-rule="evenodd" transform="translate(1.900452, 22.764706)">
                            <g>
                                <mask id="mask-10" fill="white">
                                    <use xlink:href="#path-9"></use>
                                </mask>
                                <use id="Mask" fill="url(#linearGradient-8)" fill-rule="nonzero" xlink:href="#path-9"></use>
                            </g>
                        </g>
                    </g>
                </g>
            </g>
        </g>
    </g>
</svg>