<?xml version="1.0" encoding="UTF-8"?>
<svg width="39px" height="39px" viewBox="0 0 39 39" version="1.1" xmlns="http://www.w3.org/2000/svg" xmlns:xlink="http://www.w3.org/1999/xlink">
    <!-- Generator: Sketch 61.2 (89653) - https://sketch.com -->
    <title>User 01c Copy</title>
    <desc>Created with Sketch.</desc>
    <defs>
        <circle id="path-1" cx="19.5" cy="19.5" r="19.5"></circle>
        <linearGradient x1="50%" y1="0%" x2="50%" y2="100%" id="linearGradient-3">
            <stop stop-color="#130027" offset="0%"></stop>
            <stop stop-color="#130017" offset="100%"></stop>
        </linearGradient>
        <linearGradient x1="50%" y1="100%" x2="50%" y2="0%" id="linearGradient-4">
            <stop stop-color="#E6864E" offset="0%"></stop>
            <stop stop-color="#E67240" offset="100%"></stop>
        </linearGradient>
        <linearGradient x1="50%" y1="0%" x2="50%" y2="100%" id="linearGradient-5">
            <stop stop-color="#FFE0CC" offset="0%"></stop>
            <stop stop-color="#FFEADB" offset="100%"></stop>
        </linearGradient>
        <path d="M16.0291262,14.7162791 C14.955001,15.324031 13.9238202,15.627907 12.9355836,15.627907 C11.947347,15.627907 10.9591104,15.324031 9.97087379,14.7162791 L9.97087379,11.8511628 C9.59319668,11.9206991 9.30358226,11.9103313 9.00632353,11.9102992 C5.97880566,11.9099727 4.83711217,7.35955615 5.42718447,1.82325581 C5.80582524,1.82325581 6.68932039,1.82325581 7.95145631,0 C7.63592233,2.53953488 11.2961165,2.14883721 12.684466,0.130232558 C11.9902913,2.53953488 13.8203883,4.16744186 15.3980583,3.19069767 C18.4917235,1.27539238 19.1870853,7.11405909 16.0291262,7.1627907 L16.0291262,14.7162791 Z" id="path-6"></path>
        <linearGradient x1="50%" y1="0%" x2="50%" y2="100%" id="linearGradient-8">
            <stop stop-color="#130027" offset="0%"></stop>
            <stop stop-color="#130017" offset="100%"></stop>
        </linearGradient>
    </defs>
    <g id="WEB---LIGHT" stroke="none" stroke-width="1" fill="none" fill-rule="evenodd">
        <g id="EMPLOYEES---SEARCH" transform="translate(-211.000000, -676.000000)">
            <g id="User-01c-Copy" transform="translate(230.500000, 695.500000) scale(-1, 1) translate(-230.500000, -695.500000) translate(211.000000, 676.000000)">
                <mask id="mask-2" fill="white">
                    <use xlink:href="#path-1"></use>
                </mask>
                <use id="Mask" fill="#DADFF7" xlink:href="#path-1"></use>
                <path d="M5.77820341,21.4101018 C4.71498917,17.753736 4.05964759,11.502543 8.53063806,7.22736351 C11.9475558,3.96009275 21.1787306,3.63078395 24.3899044,10.7560831 C24.9259608,11.945543 24.1933019,13.8097827 22.7515504,13.7419227 C22.1848976,13.7152516 21.8340722,15.5741425 21.5064014,16.7277623 C21.9651405,21.4101018 26.052143,21.4965624 28.1253514,25.0745413 C30.6811836,29.4854408 27.535544,36 19.9991158,36 C12.4626876,36 8.1423361,29.540292 5.77820341,21.4101018 Z" id="Combined-Shape" fill="url(#linearGradient-3)" fill-rule="nonzero" mask="url(#mask-2)" transform="translate(17.000000, 20.500000) scale(-1, 1) translate(-17.000000, -20.500000) "></path>
                <g id="Group-16" mask="url(#mask-2)">
                    <g transform="translate(6.000000, 12.000000)">
                        <path d="M24.6116505,19.4599712 C25.2286947,20.6862317 25.6914779,23.532908 26,28 L0,28 C0.308522114,23.532908 0.771305286,20.6862317 1.38834951,19.4599712 C2.31391586,17.6205804 6.18446602,15.5184194 13,13.1534884 C19.815534,15.5184194 23.6860841,17.6205804 24.6116505,19.4599712 Z" id="Rectangle" stroke="none" fill="url(#linearGradient-4)" fill-rule="evenodd"></path>
                        <mask id="mask-7" fill="white">
                            <use xlink:href="#path-6"></use>
                        </mask>
                        <use id="Mask" stroke="none" fill="url(#linearGradient-5)" fill-rule="evenodd" xlink:href="#path-6"></use>
                        <path d="M9.97087379,11.8511628 C11.6537217,11.5472868 13.1262136,10.9612403 14.3883495,10.0930233 C13.3365696,11.9596899 11.8640777,12.8930233 9.97087379,12.8930233 L9.97087379,11.8511628 Z" id="Path-2" stroke="none" fill="#FFD7B8" fill-rule="nonzero" opacity="0.782421875" style="mix-blend-mode: multiply;" mask="url(#mask-7)"></path>
                    </g>
                </g>
                <g id="Group-9" mask="url(#mask-2)" fill="#FFFFFF" fill-rule="nonzero">
                    <g transform="translate(14.000000, 25.000000)" id="Combined-Shape">
                        <path d="M5.00435437,2.99581758 C5.95532522,2.9413026 8.15789474,2.35131794 8.15789474,1.07671728 L8.15789474,0 C8.3992153,0 9.09018447,0.722059092 9.44551547,1.33333333 C10.8503131,3.75 9.2920992,5.91666667 8.0213657,5.91666667 C6.41785836,5.91666667 5.35550903,4.21974612 5,3.40328318 C4.64449097,4.21974612 3.58214164,5.91666667 1.9786343,5.91666667 C0.707900803,5.91666667 -0.850313073,3.75 0.554484526,1.33333333 C0.909815528,0.722059092 1.6007847,0 1.84210526,0 L1.84210526,1.07671728 C1.84210526,2.35131774 4.10420299,2.94130242 5.00435481,2.99581755 L5.00435437,2.99581758 Z"></path>
                    </g>
                </g>
                <path d="M20.5,36.8333333 C20.7761424,36.8333333 21,37.0945006 21,37.4166667 C21,37.7388328 20.7761424,38 20.5,38 C20.2238576,38 20,37.7388328 20,37.4166667 C20,37.0945006 20.2238576,36.8333333 20.5,36.8333333 Z M20.5,33.9166667 C20.7761424,33.9166667 21,34.1778339 21,34.5 C21,34.8221661 20.7761424,35.0833333 20.5,35.0833333 C20.2238576,35.0833333 20,34.8221661 20,34.5 C20,34.1778339 20.2238576,33.9166667 20.5,33.9166667 Z M20.5,31 C20.7761424,31 21,31.2611672 21,31.5833333 C21,31.9054994 20.7761424,32.1666667 20.5,32.1666667 C20.2238576,32.1666667 20,31.9054994 20,31.5833333 C20,31.2611672 20.2238576,31 20.5,31 Z" id="Combined-Shape" fill="url(#linearGradient-8)" fill-rule="nonzero" mask="url(#mask-2)"></path>
            </g>
        </g>
    </g>
</svg>