<?xml version="1.0" encoding="UTF-8"?>
<svg width="39px" height="38px" viewBox="0 0 39 38" version="1.1" xmlns="http://www.w3.org/2000/svg" xmlns:xlink="http://www.w3.org/1999/xlink">
    <!-- Generator: Sketch 61.2 (89653) - https://sketch.com -->
    <title>User 02c Copy</title>
    <desc>Created with Sketch.</desc>
    <defs>
        <ellipse id="path-1" cx="19.5" cy="19" rx="19.5" ry="19"></ellipse>
        <linearGradient x1="50%" y1="0%" x2="50%" y2="100%" id="linearGradient-3">
            <stop stop-color="#E6864E" offset="0%"></stop>
            <stop stop-color="#EB965E" offset="100%"></stop>
        </linearGradient>
        <linearGradient x1="50%" y1="0%" x2="50%" y2="100%" id="linearGradient-4">
            <stop stop-color="#130027" offset="0%"></stop>
            <stop stop-color="#130017" offset="100%"></stop>
        </linearGradient>
        <linearGradient x1="50%" y1="100%" x2="50%" y2="0%" id="linearGradient-5">
            <stop stop-color="#E6864E" offset="0%"></stop>
            <stop stop-color="#E67240" offset="100%"></stop>
        </linearGradient>
        <linearGradient x1="50%" y1="0%" x2="50%" y2="100%" id="linearGradient-6">
            <stop stop-color="#130027" offset="0%"></stop>
            <stop stop-color="#130017" offset="100%"></stop>
        </linearGradient>
    </defs>
    <g id="WEB---LIGHT" stroke="none" stroke-width="1" fill="none" fill-rule="evenodd">
        <g id="EMPLOYEES---SEARCH" transform="translate(-211.000000, -726.000000)">
            <g id="User-02c-Copy" transform="translate(211.000000, 726.000000)">
                <mask id="mask-2" fill="white">
                    <use xlink:href="#path-1"></use>
                </mask>
                <use id="Mask" fill="#DADFF7" xlink:href="#path-1"></use>
                <g id="Group-12" mask="url(#mask-2)">
                    <g transform="translate(4.000000, 3.000000)">
                        <path d="M20.2666667,18.3212996 L20.2666667,21.101083 C20.2666667,21.2845688 18.8444444,21.6540346 16,22.2094805 C13.1555556,21.7323008 11.7333333,21.3628349 11.7333333,21.101083 C11.7333333,20.3581765 11.749387,16.6283623 11.7333333,13.1645328 C9.82239086,10.8172978 9.82239086,9.35018051 11.3333333,7.83393502 C12.3406283,6.82310469 16.4295172,6.06498195 23.6,5.55956679 C24.1379989,10.4629322 24.44911,13.579659 24.5333333,14.9097473 C24.5841399,15.7121057 25.1333333,18.3212996 23,18.3212996 C22.200375,18.3212996 21.2892639,18.3212996 20.2666667,18.3212996 Z" id="Mask" fill="url(#linearGradient-3)" fill-rule="evenodd"></path>
                        <path d="M20.2666667,18.08415 L20.2666667,19.6050954 C17.4089821,19.1227321 15.7645377,18.1051492 15.3333333,16.5523466 C16.5777778,17.3525872 18.1777778,17.8580024 20.1333333,18.0685921 C20.1780008,18.0734022 20.2224518,18.0785932 20.2666667,18.08415 Z" id="Combined-Shape" fill="#F5C6A6" fill-rule="evenodd" style="mix-blend-mode: multiply;"></path>
                        <path d="M30,26.8258994 C30.8462426,28.4564361 31.5129092,31.1519837 32,34.912542 L0,34.912542 C0.487323702,31.1515623 1.15399037,28.4560147 2,26.8258994 C2.56215017,25.7427325 5.45103905,24.1587233 10.6666667,22.0738716 L21.3333333,22.0730176 C26.5500743,24.1606019 29.4389631,25.7448959 30,26.8258994 Z" id="Combined-Shape" fill="url(#linearGradient-4)" fill-rule="nonzero"></path>
                        <path d="M16.9333333,22.8700361 L17.6,34.4945848 L14.4,34.4945848 L15.0666667,22.8700361 C15.4814815,22.4488568 15.7925926,22.2382671 16,22.2382671 C16.2074074,22.2382671 16.5185185,22.4488568 16.9333333,22.8700361 Z" id="Mask" fill="url(#linearGradient-5)" fill-rule="evenodd"></path>
                        <path d="M17.0682461,25.2224853 L14.9967994,24.0882997 L15.0666667,22.8700361 C15.4814815,22.4488568 15.7925926,22.2382671 16,22.2382671 C16.2074074,22.2382671 16.5185185,22.4488568 16.9333333,22.8700361 L17.0682461,25.2224853 Z" id="Combined-Shape" fill="#D24B24" fill-rule="evenodd"></path>
                        <polygon id="Combined-Shape" fill="#FFFFFF" fill-rule="evenodd" points="16 22.2371732 14.6666667 24.5126354 10.5333333 22.1119134 11.7333333 20.4693141 16 21.9629508 20.2666667 20.4693141 21.4666667 22.1119134 17.3333333 24.5126354"></polygon>
                        <path d="M13.4693812,9.37613121 C13.0453299,9.03102171 12.530164,8.79870985 11.8019103,9.1572829 C10.0753308,10.0074054 11.2212226,13.2841976 13.1533782,13.2202572 C13.8196388,13.1982088 13.5143814,14.4572846 11.7333333,15.2888087 C11.7333333,13.9620939 9.6,10.6768953 9.41394754,7.6857889 C7.26666667,6.92832648 7.8,3.89748433 9.27434955,3.89748433 C9.03854012,1.11877081 13.7333333,-0.315884477 15.5512043,1.27819108 C17.4,-0.821299639 22.0666667,0.252707581 22.3484965,2.07408547 C25.557334,0.450726387 27.6666667,5.11732852 24.6620076,6.92832648 C23.4256603,7.67351006 20.5333333,7.95748204 16.3583336,7.95748204 C14.3548081,7.95748204 15.5070116,12.4013615 16.1333333,13.8357401 C16.9333333,15.66787 21.4,15.9205776 22.8,15.7310469 C23.8932658,15.5830416 24.4666667,15.1624549 24.5333333,14.9097473 C25.5333333,17.4368231 24.2666567,18.9530686 22.2666667,18.9530686 C18.8666667,18.9530686 15.4666667,18.0054152 14.9333333,15.66787 C14.508877,13.8075214 14.5321397,10.8052693 13.4693812,9.37613121 Z" id="Combined-Shape" fill="url(#linearGradient-6)" fill-rule="nonzero"></path>
                    </g>
                </g>
            </g>
        </g>
    </g>
</svg>