<?xml version="1.0" encoding="UTF-8"?>
<svg width="39px" height="40px" viewBox="0 0 39 40" version="1.1" xmlns="http://www.w3.org/2000/svg" xmlns:xlink="http://www.w3.org/1999/xlink">
    <!-- Generator: Sketch 61.2 (89653) - https://sketch.com -->
    <title>User 05c Copy</title>
    <desc>Created with Sketch.</desc>
    <defs>
        <ellipse id="path-1" cx="19.5" cy="20" rx="19.5" ry="20"></ellipse>
        <linearGradient x1="50%" y1="0%" x2="50%" y2="100%" id="linearGradient-3">
            <stop stop-color="#E6864E" offset="0%"></stop>
            <stop stop-color="#EB965E" offset="100%"></stop>
        </linearGradient>
        <linearGradient x1="81.0579221%" y1="36.1352868%" x2="46.4183066%" y2="76.1870914%" id="linearGradient-4">
            <stop stop-color="#E07A3F" offset="0%"></stop>
            <stop stop-color="#EB9154" offset="100%"></stop>
        </linearGradient>
        <linearGradient x1="50%" y1="0%" x2="50%" y2="100%" id="linearGradient-5">
            <stop stop-color="#1D0024" offset="0%"></stop>
            <stop stop-color="#100014" offset="100%"></stop>
        </linearGradient>
        <linearGradient x1="50%" y1="0%" x2="50%" y2="100%" id="linearGradient-6">
            <stop stop-color="#1D0024" offset="0%"></stop>
            <stop stop-color="#100014" offset="100%"></stop>
        </linearGradient>
    </defs>
    <g id="WEB---LIGHT" stroke="none" stroke-width="1" fill="none" fill-rule="evenodd">
        <g id="EMPLOYEES---SEARCH" transform="translate(-211.000000, -876.000000)">
            <g id="User-05c-Copy" transform="translate(211.000000, 876.000000)">
                <mask id="mask-2" fill="white">
                    <use xlink:href="#path-1"></use>
                </mask>
                <use id="Mask" fill="#DADFF7" transform="translate(19.500000, 20.000000) scale(-1, 1) translate(-19.500000, -20.000000) " xlink:href="#path-1"></use>
                <path d="M23.8939096,23.6685136 C23.8939096,23.6685136 23.8939096,24.2017126 23.8939096,25.2681106 C23.8939096,26.6899747 24.8764975,27.7119394 26.8416733,28.3340049 C24.577449,30.111335 22.2705034,31 19.9208367,31 C17.5711699,31 15.2642243,30.111335 13,28.3340049 C14.9806071,27.7119394 15.963195,26.6899747 15.9477638,25.2681106 C15.9246169,23.1353146 15.9400482,21.8825115 15.9246169,18.2282673 C14.0877668,15.7519993 14.2055988,14.0899925 15.2100176,12.9212327 C17.4534182,10.3107714 21.6296852,9.44987328 27.7388188,10.3385383 C28.308888,16.7362741 27.9457577,20.8685664 26.6494279,22.7354153 C26.0940521,23.5352138 25.175546,23.8462466 23.8939096,23.6685136 Z" id="face" fill="url(#linearGradient-3)" mask="url(#mask-2)"></path>
                <path d="M24,24 C21.4857143,23.7222222 19.4857143,23.0555556 18,22 C19.2571429,24.0555556 21.2571429,25.3888889 24,26 L24,24 Z" id="shade" fill="url(#linearGradient-4)" opacity="0.600000024" style="mix-blend-mode: multiply;" mask="url(#mask-2)"></path>
                <path d="M34,32.155669 C34.8462426,33.938981 35.5129092,36.8870913 36,41 L4,41 C4.4873237,36.8866304 5.15399037,33.9385201 6,32.155669 C6.84600963,30.3728179 9.7393107,28.6545729 14.6799032,27.000934 C16.1083502,30.0409101 23.9477019,30.0405746 25.316107,27 C30.2591265,28.6538007 33.1537574,30.3723571 34,32.155669 Z" id="body" fill="url(#linearGradient-5)" fill-rule="nonzero" mask="url(#mask-2)"></path>
                <path d="M20.5,36 C20.7761424,36 21,36.2238576 21,36.5 C21,36.7761424 20.7761424,37 20.5,37 C20.2238576,37 20,36.7761424 20,36.5 C20,36.2238576 20.2238576,36 20.5,36 Z M20.5,33.5 C20.7761424,33.5 21,33.7238576 21,34 C21,34.2761424 20.7761424,34.5 20.5,34.5 C20.2238576,34.5 20,34.2761424 20,34 C20,33.7238576 20.2238576,33.5 20.5,33.5 Z M20.5,31 C20.7761424,31 21,31.2238576 21,31.5 C21,31.7761424 20.7761424,32 20.5,32 C20.2238576,32 20,31.7761424 20,31.5 C20,31.2238576 20.2238576,31 20.5,31 Z" id="buttons" fill="#FFFFFF" fill-rule="nonzero" mask="url(#mask-2)"></path>
                <path d="M17.1456034,13.7608948 C16.7479595,13.3967324 16.2648753,13.1515951 15.5819731,13.5299643 C13.9629152,14.4270205 15.1882672,17.8662726 16.6261132,17.8662726 C17.0013114,17.8662726 17.1878012,19.1225691 15.5176667,20 C15.5176667,18.6000398 13.5171854,15.1334716 13.3427192,11.9772319 C11.3291589,11.1779514 11.8292792,7.97978217 13.2118146,7.97978217 C12.9906901,5.04766113 17.393118,3.53380124 19.0977822,5.2158827 C20.8314454,3.00048306 25.2074984,4.13378419 25.4717774,6.05571691 C28.4807866,4.34273524 30.458762,9.26697166 27.6412161,11.1779514 C26.4818615,11.9642751 23.7696524,12.2639247 19.8546481,12.2639247 C19.2636916,12.2639247 18.9326127,12.4204266 19.0977822,13.1997386 C19.4178239,14.7097766 18.6749678,15.6610284 17.1456034,13.7608948 Z" id="hair" fill="url(#linearGradient-6)" fill-rule="nonzero" mask="url(#mask-2)"></path>
            </g>
        </g>
    </g>
</svg>