<?xml version="1.0" encoding="UTF-8"?>
<svg width="39px" height="39px" viewBox="0 0 39 39" version="1.1" xmlns="http://www.w3.org/2000/svg" xmlns:xlink="http://www.w3.org/1999/xlink">
    <!-- Generator: Sketch 61.2 (89653) - https://sketch.com -->
    <title>User 04c Copy</title>
    <desc>Created with Sketch.</desc>
    <defs>
        <circle id="path-1" cx="19.5" cy="19.5" r="19.5"></circle>
        <linearGradient x1="50%" y1="0%" x2="50%" y2="100%" id="linearGradient-3">
            <stop stop-color="#1D0024" offset="0%"></stop>
            <stop stop-color="#100014" offset="100%"></stop>
        </linearGradient>
        <linearGradient x1="50%" y1="100%" x2="50%" y2="0%" id="linearGradient-4">
            <stop stop-color="#E6864E" offset="0%"></stop>
            <stop stop-color="#E67240" offset="100%"></stop>
        </linearGradient>
    </defs>
    <g id="WEB---LIGHT" stroke="none" stroke-width="1" fill="none" fill-rule="evenodd">
        <g id="EMPLOYEES---SEARCH" transform="translate(-211.000000, -826.000000)">
            <g id="User-04c-Copy" transform="translate(230.500000, 845.500000) scale(-1, 1) translate(-230.500000, -845.500000) translate(211.000000, 826.000000)">
                <mask id="mask-2" fill="white">
                    <use xlink:href="#path-1"></use>
                </mask>
                <use id="Mask" fill="#DADFF7" transform="translate(19.500000, 19.500000) scale(-1, 1) translate(-19.500000, -19.500000) " xlink:href="#path-1"></use>
                <path d="M30.6116505,30.3716814 C31.2286947,31.6106195 31.6914779,34.4867257 32,39 L6,39 C6.30852211,34.4867257 6.77130529,31.6106195 7.38834951,30.3716814 C8.31391586,28.5132743 12.184466,26.3893805 19,24 C25.815534,26.3893805 29.6860841,28.5132743 30.6116505,30.3716814 Z" id="Rectangle" fill="url(#linearGradient-3)" fill-rule="nonzero" mask="url(#mask-2)" transform="translate(19.000000, 31.500000) scale(-1, 1) translate(-19.000000, -31.500000) "></path>
                <path d="M20.5,36.8333333 C20.7761424,36.8333333 21,37.0945006 21,37.4166667 C21,37.7388328 20.7761424,38 20.5,38 C20.2238576,38 20,37.7388328 20,37.4166667 C20,37.0945006 20.2238576,36.8333333 20.5,36.8333333 Z M20.5,33.9166667 C20.7761424,33.9166667 21,34.1778339 21,34.5 C21,34.8221661 20.7761424,35.0833333 20.5,35.0833333 C20.2238576,35.0833333 20,34.8221661 20,34.5 C20,34.1778339 20.2238576,33.9166667 20.5,33.9166667 Z M20.5,31 C20.7761424,31 21,31.2611672 21,31.5833333 C21,31.9054994 20.7761424,32.1666667 20.5,32.1666667 C20.2238576,32.1666667 20,31.9054994 20,31.5833333 C20,31.2611672 20.2238576,31 20.5,31 Z" id="Combined-Shape" fill="#FFFFFF" fill-rule="nonzero" mask="url(#mask-2)" transform="translate(20.500000, 34.500000) scale(-1, 1) translate(-20.500000, -34.500000) "></path>
                <path d="M27.8057466,24 L7.34605746,21.4029896 C6.33736555,15.7787579 7.53378295,12.2351973 10.9353097,10.772308 C12.5077693,5.3607191 18.6280964,5.80089012 20.3628028,6.24206673 C26.2662752,7.74345848 28.7472564,13.6627696 27.8057466,24 Z" id="Combined-Shape" fill="url(#linearGradient-4)" mask="url(#mask-2)" transform="translate(17.500000, 15.000000) scale(-1, 1) translate(-17.500000, -15.000000) "></path>
                <path d="M13.2707041,25.0894703 L13.2707041,17.2849297 C9.82569864,17.2362568 10.4975877,11.5964544 13.9591337,13.3176216 C14.5787204,13.577773 16.1621085,12.8623567 15.6113648,11.1063351 C19.3288848,13.7078486 24.5092369,9.14207523 24.8363217,11.951827 C25.4800293,17.4814581 24.2345603,22.0263931 20.9318526,22.0267192 C20.6075742,22.0267513 20.291635,22.0371066 19.8796284,21.967654 L19.8796284,25.0894703 C18.8015649,25.6964901 17.7235014,26 16.6454379,26 C15.5673744,26 14.4424631,25.6964901 13.2707041,25.0894703 Z" id="Mask" fill="#FFDBC9" mask="url(#mask-2)" transform="translate(18.000000, 18.500000) scale(-1, 1) translate(-18.000000, -18.500000) "></path>
                <path d="M22,22.5116279 L22,24 C19.4285714,24 17.4285714,22.6666667 16,20 C17.7142857,21.2403101 19.7142857,22.0775194 22,22.5116279 Z" id="Path-2" fill="#FFBC9E" mask="url(#mask-2)" transform="translate(19.000000, 22.000000) scale(-1, 1) translate(-19.000000, -22.000000) "></path>
                <path d="M19.4960807,26.0253414 C20.3062173,25.9884861 22.3421053,25.5896233 22.3421053,24.7279215 L22.3421053,24 C22.5592938,24 23.181166,24.4881526 23.5009639,24.9014085 C24.7652818,26.5352113 23.3628893,28 22.2192291,28 C20.7760725,28 19.8199581,26.8527861 19.5,26.3008112 C19.1800419,26.8527861 18.2239275,28 16.7807709,28 C15.6371107,28 14.2347182,26.5352113 15.4990361,24.9014085 C15.818834,24.4881526 16.4407062,24 16.6578947,24 L16.6578947,24.7279215 C16.6578947,25.5896234 18.6402073,25.9884863 19.4960811,26.0253415 L19.4960807,26.0253414 Z" id="Combined-Shape" fill="#FFFFFF" fill-rule="nonzero" mask="url(#mask-2)" transform="translate(19.500000, 26.000000) scale(-1, 1) translate(-19.500000, -26.000000) "></path>
            </g>
        </g>
    </g>
</svg>